<svg xmlns="http://www.w3.org/2000/svg" viewBox="0 0 200 200">
  <!-- Background Circle -->
  <circle cx="100" cy="100" r="95" fill="#1565C0" stroke="#FFB300" stroke-width="6"/>
  
  <!-- Inner Circle -->
  <circle cx="100" cy="100" r="75" fill="white" stroke="#0D47A1" stroke-width="2"/>
  
  <!-- Decorative Ring -->
  <circle cx="100" cy="100" r="85" fill="none" stroke="#FFB300" stroke-width="2"/>
  
  <!-- Shield Shape -->
  <path d="M100 35 L140 55 L140 100 C140 130 120 150 100 165 C80 150 60 130 60 100 L60 55 Z" 
        fill="#0D47A1" stroke="#FFB300" stroke-width="2"/>
  
  <!-- Waves (representing coastal municipality) -->
  <path d="M70 90 Q80 80 90 90 T110 90 T130 90" fill="none" stroke="white" stroke-width="3" stroke-linecap="round"/>
  <path d="M70 105 Q80 95 90 105 T110 105 T130 105" fill="none" stroke="white" stroke-width="3" stroke-linecap="round"/>
  
  <!-- Rice/Agriculture Symbol -->
  <path d="M100 60 L100 75" stroke="#FFB300" stroke-width="3" stroke-linecap="round"/>
  <ellipse cx="100" cy="55" rx="5" ry="8" fill="#FFB300"/>
  <ellipse cx="92" cy="60" rx="4" ry="7" fill="#FFB300" transform="rotate(-20 92 60)"/>
  <ellipse cx="108" cy="60" rx="4" ry="7" fill="#FFB300" transform="rotate(20 108 60)"/>
  
  <!-- Text Arc - Top -->
  <defs>
    <path id="topArc" d="M25 100 A75 75 0 0 1 175 100" fill="none"/>
    <path id="bottomArc" d="M175 105 A75 75 0 0 1 25 105" fill="none"/>
  </defs>
  
  <text font-family="Arial, sans-serif" font-size="12" font-weight="bold" fill="#0D47A1">
    <textPath href="#topArc" startOffset="50%" text-anchor="middle">MUNICIPALITY OF BUGUEY</textPath>
  </text>
  
  <!-- Text Arc - Bottom -->
  <text font-family="Arial, sans-serif" font-size="11" font-weight="bold" fill="#0D47A1">
    <textPath href="#bottomArc" startOffset="50%" text-anchor="middle">CAGAYAN • PHILIPPINES</textPath>
  </text>
  
  <!-- Year Established -->
  <text x="100" y="145" font-family="Arial, sans-serif" font-size="10" font-weight="bold" fill="#0D47A1" text-anchor="middle">EST. 1901</text>
</svg>